<?xml version="1.0" standalone="no"?>
<!DOCTYPE svg PUBLIC "-//W3C//DTD SVG 20010904//EN"
 "http://www.w3.org/TR/2001/REC-SVG-20010904/DTD/svg10.dtd">
<svg version="1.0" xmlns="http://www.w3.org/2000/svg"
 width="400.000000pt" height="400.000000pt" viewBox="0 0 400.000000 400.000000"
 preserveAspectRatio="xMidYMid meet">
<metadata>
Created by potrace 1.11, written by Peter Selinger 2001-2013
</metadata>
<g transform="translate(0.000000,400.000000) scale(0.100000,-0.100000)"
fill="#000000" stroke="none">
<path d="M1280 3328 c0 -7 11 -38 24 -68 12 -30 52 -127 89 -215 173 -417 183
-440 200 -439 9 0 39 1 65 2 l49 2 73 203 c40 111 95 262 122 336 27 74 52
147 55 163 l6 28 -342 0 c-266 0 -341 -3 -341 -12z"/>
<path d="M2005 3294 c-8 -20 -15 -40 -15 -45 0 -5 -11 -37 -25 -71 -13 -35
-45 -120 -70 -190 -25 -71 -65 -184 -90 -253 -25 -69 -45 -130 -45 -137 0 -7
15 -23 34 -36 19 -13 44 -43 57 -68 24 -45 25 -45 64 -39 35 5 188 40 468 107
81 19 88 23 84 42 -3 11 -16 84 -28 161 -12 77 -34 205 -48 285 l-26 144 -135
53 c-74 29 -152 60 -172 68 l-38 15 -15 -36z"/>
<path d="M1087 3033 l-137 -257 24 -25 c32 -33 56 -91 56 -134 l0 -33 194 -62
c107 -34 201 -62 209 -62 8 0 20 13 27 29 6 16 25 41 41 57 16 15 29 32 29 37
0 5 -16 45 -34 90 -19 45 -71 170 -116 277 -123 295 -142 340 -149 340 -3 0
-68 -116 -144 -257z"/>
<path d="M865 3084 c-154 -107 -315 -218 -357 -246 -43 -29 -78 -56 -78 -60 0
-4 18 -12 39 -18 22 -6 74 -22 116 -35 41 -14 80 -25 86 -25 5 0 24 16 42 36
39 46 82 64 146 64 l49 0 126 236 c69 129 126 237 126 240 0 11 -34 -11 -295
-192z"/>
<path d="M2450 3187 c0 -2 81 -84 181 -183 l181 -181 36 19 c50 25 118 23 167
-5 34 -19 76 -66 87 -97 2 -5 39 -1 83 9 44 11 135 32 203 47 67 16 122 31
122 35 0 6 -135 79 -567 306 l-101 53 -196 0 c-108 0 -196 -1 -196 -3z"/>
<path d="M2430 3125 c0 -6 19 -124 42 -264 28 -172 46 -255 55 -258 8 -3 60 5
116 18 l102 24 5 50 c3 28 11 59 17 71 11 19 -4 36 -163 195 -96 95 -174 169
-174 164z"/>
<path d="M3490 2782 c-36 -8 -135 -32 -220 -52 l-154 -38 -12 -43 c-6 -24 -16
-55 -23 -68 -13 -23 -4 -33 200 -238 118 -118 221 -218 229 -222 11 -6 62 22
173 95 86 57 157 108 157 113 0 4 -23 48 -52 97 -99 172 -115 200 -164 283
-27 47 -53 86 -59 87 -5 1 -39 -5 -75 -14z"/>
<path d="M284 2588 c-55 -84 -108 -167 -119 -184 -18 -32 -18 -33 29 -250 26
-121 49 -225 51 -231 3 -9 32 -13 98 -13 108 0 82 -26 200 200 42 80 103 195
135 255 l60 110 -23 25 c-29 31 -45 71 -45 115 0 19 -6 37 -12 41 -11 7 -203
68 -254 80 -17 5 -36 -17 -120 -148z"/>
<path d="M2638 2581 c-92 -22 -108 -29 -108 -46 0 -31 61 -396 70 -421 6 -14
21 -24 44 -28 80 -15 144 -116 130 -203 l-6 -38 99 -49 c91 -45 101 -47 124
-35 13 8 129 83 257 168 l233 155 -223 223 -224 224 -29 -15 c-42 -22 -123
-20 -161 3 -18 11 -45 36 -60 55 -16 20 -31 35 -34 35 -3 -1 -53 -13 -112 -28z"/>
<path d="M988 2506 c-15 -19 -45 -42 -67 -52 -34 -15 -39 -21 -36 -43 6 -37
32 -280 50 -460 8 -85 16 -156 19 -158 4 -4 240 -63 241 -60 0 1 13 20 28 43
36 54 96 87 166 90 l54 2 53 144 c29 79 53 150 54 158 0 8 -16 28 -36 44 -42
34 -72 94 -76 155 l-3 44 -120 39 c-66 21 -154 50 -196 63 -42 14 -83 25 -90
25 -8 0 -26 -15 -41 -34z"/>
<path d="M2350 2514 c-52 -13 -178 -43 -280 -67 l-185 -44 -8 -53 c-4 -29 -6
-54 -5 -55 2 -2 131 -67 287 -144 278 -140 284 -142 298 -121 8 11 32 29 54
40 21 11 39 25 39 31 0 11 -38 244 -61 377 -13 72 -5 70 -139 36z"/>
<path d="M721 2348 c-30 -57 -91 -173 -137 -258 -45 -85 -84 -161 -86 -168 -2
-9 31 -22 107 -43 95 -25 281 -69 293 -69 6 0 -55 620 -62 626 0 1 -15 5 -31
8 -29 6 -31 5 -84 -96z"/>
<path d="M1830 2241 c-5 -11 -25 -29 -44 -40 l-34 -22 23 -57 c24 -61 99 -243
147 -357 16 -38 45 -109 64 -156 l35 -86 87 -21 c61 -14 138 -22 257 -27 94
-3 198 -8 233 -12 l63 -5 -5 33 c-37 236 -38 239 -65 239 -35 1 -101 32 -128
61 -30 34 -43 72 -43 132 l0 52 -285 143 c-157 78 -287 142 -290 142 -2 0 -9
-9 -15 -19z"/>
<path d="M3695 2175 c-70 -46 -130 -87 -133 -90 -3 -3 30 -41 73 -85 63 -64
81 -77 88 -64 11 19 107 318 103 321 -1 1 -60 -35 -131 -82z"/>
<path d="M1588 2140 c-10 -25 -56 -155 -85 -241 l-16 -47 37 -32 c46 -41 67
-80 75 -143 l6 -49 135 -34 c172 -44 220 -53 220 -43 0 5 -30 79 -66 166 -88
209 -132 316 -158 383 l-22 55 -58 5 c-55 5 -59 4 -68 -20z"/>
<path d="M3290 1909 c-124 -82 -232 -154 -240 -159 -8 -4 -13 -11 -10 -13 3
-3 93 -13 201 -22 l195 -18 127 84 c70 46 127 89 127 94 0 6 -39 49 -87 97
l-88 86 -225 -149z"/>
<path d="M480 1724 l0 -146 86 -167 c48 -91 92 -171 98 -177 6 -6 31 -18 56
-27 25 -8 89 -34 143 -56 54 -23 102 -41 106 -41 12 0 -53 638 -67 652 -6 5
-403 108 -418 108 -2 0 -4 -66 -4 -146z"/>
<path d="M2705 1768 c-22 -16 -39 -37 -38 -46 4 -42 35 -217 39 -222 3 -2 54
45 115 106 l109 109 -84 43 c-46 23 -88 42 -93 41 -4 0 -26 -14 -48 -31z"/>
<path d="M960 1725 c0 -14 9 -103 19 -198 11 -94 25 -233 32 -307 l12 -135 44
-57 c24 -32 46 -58 48 -58 4 0 37 87 96 250 22 63 52 146 66 183 l25 69 -36
30 c-46 37 -74 92 -78 149 l-3 44 -90 22 c-50 13 -100 25 -112 28 -19 4 -23 1
-23 -20z"/>
<path d="M1571 1559 c-7 -17 -31 -43 -52 -58 -46 -31 -46 -35 6 -206 18 -60
41 -138 51 -173 14 -53 19 -60 31 -50 28 23 353 417 353 427 0 6 -9 11 -19 11
-11 0 -90 18 -175 40 -85 22 -161 40 -168 40 -7 0 -19 -14 -27 -31z"/>
<path d="M1313 1373 c-18 -48 -53 -146 -78 -218 -25 -71 -57 -159 -70 -195
-23 -62 -70 -225 -70 -244 0 -5 38 -19 85 -32 l85 -23 20 23 c11 12 78 91 148
174 l128 152 -31 108 c-17 59 -45 159 -64 222 l-33 115 -44 3 -44 3 -32 -88z"/>
</g>
</svg>
